<svg xmlns="http://www.w3.org/2000/svg" width="900" height="460" viewBox="0 0 900 460" role="img" aria-label="무작위 입력 크기별 비교 횟수 (linear 축)">
<style>text{font-family:"DejaVu Sans",sans-serif;fill:#202b33}.grid{stroke:#dce3e6;stroke-width:1}.axis{stroke:#53636c;stroke-width:1.2}.value{font-size:11px}.tick{font-size:12px}.category{font-size:14px}.legend{font-size:13px}.title{font-size:21px;font-weight:700}.ylabel{font-size:13px}</style>
<text class="title" x="450.0" y="36" text-anchor="middle">무작위 입력 크기별 비교 횟수 (linear 축)</text>
<line class="grid" x1="95" y1="340.0" x2="868" y2="340.0"/>
<text class="tick" x="83" y="344.0" text-anchor="end">0</text>
<line class="grid" x1="95" y1="289.2" x2="868" y2="289.2"/>
<text class="tick" x="83" y="293.2" text-anchor="end">5,000,000</text>
<line class="grid" x1="95" y1="238.4" x2="868" y2="238.4"/>
<text class="tick" x="83" y="242.4" text-anchor="end">10,000,000</text>
<line class="grid" x1="95" y1="187.6" x2="868" y2="187.6"/>
<text class="tick" x="83" y="191.6" text-anchor="end">15,000,000</text>
<line class="grid" x1="95" y1="136.8" x2="868" y2="136.8"/>
<text class="tick" x="83" y="140.8" text-anchor="end">20,000,000</text>
<line class="grid" x1="95" y1="86.0" x2="868" y2="86.0"/>
<text class="tick" x="83" y="90.0" text-anchor="end">25,000,000</text>
<line class="axis" x1="95" y1="86" x2="95" y2="340"/>
<line class="axis" x1="95" y1="340" x2="868" y2="340"/>
<text class="ylabel" x="22" y="213.0" transform="rotate(-90 22 213.0)" text-anchor="middle">비교 횟수</text>
<rect x="130.7" y="337.4" width="36.7" height="2.6" fill="#0072B2" rx="1"/>
<text class="value" x="149.0" y="331.4" text-anchor="middle">254,001</text>
<rect x="173.3" y="339.8" width="36.7" height="0.2" fill="#D55E00" rx="1"/>
<text class="value" x="191.6" y="333.8" text-anchor="middle">17,992</text>
<rect x="215.9" y="339.9" width="36.7" height="0.1" fill="#009E73" rx="1"/>
<text class="value" x="234.2" y="333.9" text-anchor="middle">10,449</text>
<text class="category" x="191.6" y="365" text-anchor="middle">1000</text>
<rect x="323.9" y="329.8" width="36.7" height="10.2" fill="#0072B2" rx="1"/>
<text class="value" x="342.3" y="323.8" text-anchor="middle">1,002,746</text>
<rect x="366.5" y="339.6" width="36.7" height="0.4" fill="#D55E00" rx="1"/>
<text class="value" x="384.9" y="333.6" text-anchor="middle">39,273</text>
<rect x="409.1" y="339.8" width="36.7" height="0.2" fill="#009E73" rx="1"/>
<text class="value" x="427.5" y="333.8" text-anchor="middle">23,622</text>
<text class="category" x="384.9" y="365" text-anchor="middle">2000</text>
<rect x="517.2" y="298.8" width="36.7" height="41.2" fill="#0072B2" rx="1"/>
<text class="value" x="535.5" y="292.8" text-anchor="middle">4,053,536</text>
<rect x="559.8" y="339.1" width="36.7" height="0.9" fill="#D55E00" rx="1"/>
<text class="value" x="578.1" y="333.1" text-anchor="middle">92,233</text>
<rect x="602.4" y="339.5" width="36.7" height="0.5" fill="#009E73" rx="1"/>
<text class="value" x="620.7" y="333.5" text-anchor="middle">52,495</text>
<text class="category" x="578.1" y="365" text-anchor="middle">4000</text>
<rect x="710.4" y="177.6" width="36.7" height="162.4" fill="#0072B2" rx="1"/>
<text class="value" x="728.8" y="171.6" text-anchor="middle">15,982,180</text>
<rect x="753.0" y="338.0" width="36.7" height="2.0" fill="#D55E00" rx="1"/>
<text class="value" x="771.4" y="332.0" text-anchor="middle">195,268</text>
<rect x="795.6" y="338.8" width="36.7" height="1.2" fill="#009E73" rx="1"/>
<text class="value" x="814.0" y="332.8" text-anchor="middle">115,813</text>
<text class="category" x="771.4" y="365" text-anchor="middle">8000</text>
<rect x="255.0" y="417" width="14" height="14" fill="#0072B2"/>
<text class="legend" x="276.0" y="430">Insertion</text>
<rect x="385.0" y="417" width="14" height="14" fill="#D55E00"/>
<text class="legend" x="406.0" y="430">Quick</text>
<rect x="515.0" y="417" width="14" height="14" fill="#009E73"/>
<text class="legend" x="536.0" y="430">Tree</text>
</svg>
