<svg xmlns="http://www.w3.org/2000/svg" width="900" height="460" viewBox="0 0 900 460" role="img" aria-label="입력 형태별 이동 횟수 (linear 축)">
<style>text{font-family:"DejaVu Sans",sans-serif;fill:#202b33}.grid{stroke:#dce3e6;stroke-width:1}.axis{stroke:#53636c;stroke-width:1.2}.value{font-size:11px}.tick{font-size:12px}.category{font-size:14px}.legend{font-size:13px}.title{font-size:21px;font-weight:700}.ylabel{font-size:13px}</style>
<text class="title" x="450.0" y="36" text-anchor="middle">입력 형태별 이동 횟수 (linear 축)</text>
<line class="grid" x1="95" y1="340.0" x2="868" y2="340.0"/>
<text class="tick" x="83" y="344.0" text-anchor="end">0</text>
<line class="grid" x1="95" y1="289.2" x2="868" y2="289.2"/>
<text class="tick" x="83" y="293.2" text-anchor="end">500,000</text>
<line class="grid" x1="95" y1="238.4" x2="868" y2="238.4"/>
<text class="tick" x="83" y="242.4" text-anchor="end">1,000,000</text>
<line class="grid" x1="95" y1="187.6" x2="868" y2="187.6"/>
<text class="tick" x="83" y="191.6" text-anchor="end">1,500,000</text>
<line class="grid" x1="95" y1="136.8" x2="868" y2="136.8"/>
<text class="tick" x="83" y="140.8" text-anchor="end">2,000,000</text>
<line class="grid" x1="95" y1="86.0" x2="868" y2="86.0"/>
<text class="tick" x="83" y="90.0" text-anchor="end">2,500,000</text>
<line class="axis" x1="95" y1="86" x2="95" y2="340"/>
<line class="axis" x1="95" y1="340" x2="868" y2="340"/>
<text class="ylabel" x="22" y="213.0" transform="rotate(-90 22 213.0)" text-anchor="middle">이동 횟수</text>
<rect x="130.7" y="237.9" width="36.7" height="102.1" fill="#0072B2" rx="1"/>
<text class="value" x="149.0" y="231.9" text-anchor="middle">1,004,755</text>
<rect x="173.3" y="332.4" width="36.7" height="7.6" fill="#D55E00" rx="1"/>
<text class="value" x="191.6" y="326.4" text-anchor="middle">74,872</text>
<rect x="215.9" y="339.8" width="36.7" height="0.2" fill="#009E73" rx="1"/>
<text class="value" x="234.2" y="333.8" text-anchor="middle">2,000</text>
<text class="category" x="191.6" y="365" text-anchor="middle">무작위</text>
<rect x="323.9" y="339.6" width="36.7" height="0.4" fill="#0072B2" rx="1"/>
<text class="value" x="342.3" y="333.6" text-anchor="middle">3,998</text>
<rect x="366.5" y="333.9" width="36.7" height="6.1" fill="#D55E00" rx="1"/>
<text class="value" x="384.9" y="327.9" text-anchor="middle">60,080</text>
<rect x="409.1" y="339.8" width="36.7" height="0.2" fill="#009E73" rx="1"/>
<text class="value" x="427.5" y="333.8" text-anchor="middle">2,000</text>
<text class="category" x="384.9" y="365" text-anchor="middle">정렬됨</text>
<rect x="517.2" y="136.5" width="36.7" height="203.5" fill="#0072B2" rx="1"/>
<text class="value" x="535.5" y="130.5" text-anchor="middle">2,002,998</text>
<rect x="559.8" y="333.9" width="36.7" height="6.1" fill="#D55E00" rx="1"/>
<text class="value" x="578.1" y="327.9" text-anchor="middle">59,577</text>
<rect x="602.4" y="339.8" width="36.7" height="0.2" fill="#009E73" rx="1"/>
<text class="value" x="620.7" y="333.8" text-anchor="middle">2,000</text>
<text class="category" x="578.1" y="365" text-anchor="middle">역순</text>
<rect x="710.4" y="250.6" width="36.7" height="89.4" fill="#0072B2" rx="1"/>
<text class="value" x="728.8" y="244.6" text-anchor="middle">879,748</text>
<rect x="753.0" y="338.7" width="36.7" height="1.3" fill="#D55E00" rx="1"/>
<text class="value" x="771.4" y="332.7" text-anchor="middle">12,758</text>
<rect x="795.6" y="339.8" width="36.7" height="0.2" fill="#009E73" rx="1"/>
<text class="value" x="814.0" y="333.8" text-anchor="middle">2,000</text>
<text class="category" x="771.4" y="365" text-anchor="middle">중복 다수</text>
<rect x="255.0" y="417" width="14" height="14" fill="#0072B2"/>
<text class="legend" x="276.0" y="430">Insertion</text>
<rect x="385.0" y="417" width="14" height="14" fill="#D55E00"/>
<text class="legend" x="406.0" y="430">Quick</text>
<rect x="515.0" y="417" width="14" height="14" fill="#009E73"/>
<text class="legend" x="536.0" y="430">Tree</text>
</svg>
