<svg xmlns="http://www.w3.org/2000/svg" width="900" height="460" viewBox="0 0 900 460" role="img" aria-label="n=2,000 무작위 입력의 보조 공간">
<style>text{font-family:"DejaVu Sans",sans-serif;fill:#202b33}.grid{stroke:#dce3e6;stroke-width:1}.axis{stroke:#53636c;stroke-width:1.2}.value{font-size:11px}.tick{font-size:12px}.category{font-size:14px}.legend{font-size:13px}.title{font-size:21px;font-weight:700}.ylabel{font-size:13px}</style>
<text class="title" x="450.0" y="36" text-anchor="middle">n=2,000 무작위 입력의 보조 공간</text>
<line class="grid" x1="95" y1="340.0" x2="868" y2="340.0"/>
<text class="tick" x="83" y="344.0" text-anchor="end">0</text>
<line class="grid" x1="95" y1="289.2" x2="868" y2="289.2"/>
<text class="tick" x="83" y="293.2" text-anchor="end">20,000</text>
<line class="grid" x1="95" y1="238.4" x2="868" y2="238.4"/>
<text class="tick" x="83" y="242.4" text-anchor="end">40,000</text>
<line class="grid" x1="95" y1="187.6" x2="868" y2="187.6"/>
<text class="tick" x="83" y="191.6" text-anchor="end">60,000</text>
<line class="grid" x1="95" y1="136.8" x2="868" y2="136.8"/>
<text class="tick" x="83" y="140.8" text-anchor="end">80,000</text>
<line class="grid" x1="95" y1="86.0" x2="868" y2="86.0"/>
<text class="tick" x="83" y="90.0" text-anchor="end">100,000</text>
<line class="axis" x1="95" y1="86" x2="95" y2="340"/>
<line class="axis" x1="95" y1="340" x2="868" y2="340"/>
<text class="ylabel" x="22" y="213.0" transform="rotate(-90 22 213.0)" text-anchor="middle">bytes</text>
<rect x="395.2" y="340.0" width="52.0" height="0.0" fill="#0072B2" rx="1"/>
<text class="value" x="421.2" y="334.0" text-anchor="middle">4</text>
<rect x="455.5" y="340.0" width="52.0" height="0.0" fill="#D55E00" rx="1"/>
<text class="value" x="481.5" y="334.0" text-anchor="middle">8</text>
<rect x="515.8" y="137.1" width="52.0" height="202.9" fill="#009E73" rx="1"/>
<text class="value" x="541.8" y="131.1" text-anchor="middle">79,880</text>
<text class="category" x="481.5" y="365" text-anchor="middle">n=2,000</text>
<rect x="255.0" y="417" width="14" height="14" fill="#0072B2"/>
<text class="legend" x="276.0" y="430">Insertion</text>
<rect x="385.0" y="417" width="14" height="14" fill="#D55E00"/>
<text class="legend" x="406.0" y="430">Quick</text>
<rect x="515.0" y="417" width="14" height="14" fill="#009E73"/>
<text class="legend" x="536.0" y="430">Tree</text>
</svg>
